# Exported from Wings 3D 0.98.32a
mtllib dzn0.mtl
o Model::Cylinder04
#24 vertices, 44 faces
v 0.0000000e+0 -7.38136673 -3.2264980e-7
v 3.73641739 -7.38136673 -3.2264980e-7
v 3.14327431 -7.38136673 -2.02006010
v 1.55216360 -7.38136673 -3.39876512
v -0.53174806 -7.38136673 -3.69838632
v -2.44683342 -7.38136673 -2.82379583
v -3.58506660 -7.38136673 -1.05267004
v -3.58506584 -7.38136673 1.05267092
v -2.44683228 -7.38136673 2.82379614
v -0.53174653 -7.38136673 3.69838606
v 1.55216503 -7.38136673 3.39876410
v 3.14327507 -7.38136673 2.02005831
v 3.73641739 -0.80665512 -3.2264979e-7
v 3.14327431 -0.80665512 -2.02006010
v 1.55216360 -0.80665512 -3.39876512
v -0.53174806 -0.80665512 -3.69838632
v -2.44683342 -0.80665512 -2.82379583
v -3.58506660 -0.80665512 -1.05267004
v -3.58506584 -0.80665512 1.05267092
v -2.44683228 -0.80665512 2.82379614
v -0.53174653 -0.80665512 3.69838606
v 1.55216503 -0.80665512 3.39876410
v 3.14327507 -0.80665512 2.02005831
v 0.0000000e+0 -0.80665512 -3.2264979e-7
vt 0.61395711 0.57419133
vt 0.61395711 0.79253197
vt 0.63380623 0.57419133
vt 0.63380623 0.79253197
vt 0.65365541 0.57419133
vt 0.65365541 0.79253197
vt 0.67350459 0.57419133
vt 0.67350459 0.79253197
vt 0.69335371 0.57419133
vt 0.69335371 0.79253197
vt 0.71320283 0.57419133
vt 0.71320283 0.79253197
vt 0.73305202 0.57419133
vt 0.73305202 0.79253197
vt 0.73801428 0.57419133
vt 0.73801428 0.79253197
vt 0.75290114 0.57419133
vt 0.75290114 0.79253197
vt 0.77275026 0.57419133
vt 0.77275026 0.79253197
vt 0.79259944 0.57419133
vt 0.79259944 0.79253197
vt 0.81244856 0.57419133
vt 0.81244856 0.79253197
vt 0.83229774 0.57419133
vt 0.83229774 0.79253197
vn -1.1803372e-17 -1.00000000 -1.9255749e-16
vn 0.81858870 -0.56876476 -8.0119830e-2
vn 0.64532458 -0.56876477 -0.50996355
vn 0.26717449 -0.56876477 -0.77789744
vn -0.19580167 -0.56876477 -0.79885439
vn -0.59661215 -0.56876477 -0.56618070
vn -0.80800249 -0.56876478 -0.15374850
vn -0.76285768 -0.56876476 0.30749764
vn -0.47551098 -0.56876477 0.67111545
vn -3.7192809e-2 -0.56876478 0.82165889
vn 0.41293381 -0.56876477 0.71133136
vn 0.73195676 -0.56876476 0.37516124
vn 0.81858872 0.56876476 8.0119671e-2
vn 0.73195664 0.56876477 -0.37516144
vn 0.41293350 0.56876477 -0.71133155
vn -3.7193098e-2 0.56876477 -0.82165887
vn -0.47551119 0.56876477 -0.67111530
vn -0.76285780 0.56876478 -0.30749731
vn -0.80800241 0.56876476 0.15374898
vn -0.59661197 0.56876477 0.56618088
vn -0.19580140 0.56876478 0.79885445
vn 0.26717480 0.56876477 0.77789733
vn 0.64532479 0.56876476 0.50996330
vn 4.7431135e-23 1.00000000 2.7828828e-16
g Model::Cylinder04_Material::01 - Default  ( Standard )
usemtl Material::01 - Default  ( Standard )
f 1/15/1 3/23/3 2/21/2
f 1/15/1 4/25/4 3/23/3
f 1/15/1 5/3/5 4/1/4
f 1/15/1 6/5/6 5/3/5
f 1/15/1 7/7/7 6/5/6
f 1/15/1 8/9/8 7/7/7
f 1/15/1 9/11/9 8/9/8
f 1/15/1 10/13/10 9/11/9
f 1/15/1 11/17/11 10/13/10
f 1/15/1 12/19/12 11/17/11
f 2/21/2 12/19/12 1/15/1
f 2/21/2 13/22/13 12/19/12
f 2/21/2 14/24/14 13/22/13
f 3/23/3 14/24/14 2/21/2
f 3/23/3 15/26/15 14/24/14
f 4/25/4 15/26/15 3/23/3
f 4/1/4 16/4/16 15/2/15
f 5/3/5 16/4/16 4/1/4
f 5/3/5 17/6/17 16/4/16
f 6/5/6 17/6/17 5/3/5
f 6/5/6 18/8/18 17/6/17
f 7/7/7 18/8/18 6/5/6
f 7/7/7 19/10/19 18/8/18
f 8/9/8 19/10/19 7/7/7
f 8/9/8 20/12/20 19/10/19
f 9/11/9 20/12/20 8/9/8
f 9/11/9 21/14/21 20/12/20
f 10/13/10 21/14/21 9/11/9
f 10/13/10 22/18/22 21/14/21
f 11/17/11 22/18/22 10/13/10
f 11/17/11 23/20/23 22/18/22
f 12/19/12 23/20/23 11/17/11
f 13/22/13 23/20/23 12/19/12
f 13/22/13 24/16/24 23/20/23
f 14/24/14 24/16/24 13/22/13
f 15/26/15 24/16/24 14/24/14
f 16/4/16 24/16/24 15/2/15
f 17/6/17 24/16/24 16/4/16
f 18/8/18 24/16/24 17/6/17
f 19/10/19 24/16/24 18/8/18
f 20/12/20 24/16/24 19/10/19
f 21/14/21 24/16/24 20/12/20
f 22/18/22 24/16/24 21/14/21
f 23/20/23 24/16/24 22/18/22
