# Exported from Wings 3D 0.98.32a
mtllib dzn2.mtl
o Model::Cylinder03
#18 vertices, 32 faces
v -2.6933731e-8 3.6935130e-8 2.34703846
v 0.54604022 3.6935130e-8 2.34703846
v 0.38610873 0.38610882 2.34703856
v -5.0801910e-8 0.54604029 2.34703861
v -0.38610881 0.38610877 2.34703856
v -0.54604028 -1.0801231e-8 2.34703846
v -0.38610876 -0.38610877 2.34703836
v 4.4670804e-8 -0.54604021 2.34703831
v 0.38610880 -0.38610867 2.34703836
v 0.54604022 -8.1039460e-8 2.79002552
v 0.38610873 0.38610870 2.79002562
v -5.0801910e-8 0.54604017 2.79002567
v -0.38610881 0.38610865 2.79002562
v -0.54604028 -1.2877582e-7 2.79002552
v -0.38610876 -0.38610888 2.79002542
v 4.4670804e-8 -0.54604033 2.79002537
v 0.38610880 -0.38610879 2.79002542
v -2.6933731e-8 -8.1039460e-8 2.79002552
vt 0.71334922 0.47110763
vt 0.71334922 0.73220420
vt 0.74598634 0.47110763
vt 0.74598634 0.73220420
vt 0.77862340 0.47110763
vt 0.77862340 0.73220420
vt 0.81126046 0.47110763
vt 0.81126046 0.73220420
vt 0.84389758 0.47110763
vt 0.84389758 0.73220420
vt 0.87653458 0.47110763
vt 0.87653458 0.73220420
vt 0.90917170 0.47110763
vt 0.90917170 0.73220420
vt 0.94180876 0.47110763
vt 0.94180876 0.73220420
vt 0.97444582 0.47110763
vt 0.97444582 0.73220420
vn 8.9609818e-17 2.6631611e-7 -1.00000000
vn 0.80588506 0.11126968 -0.58152243
vn 0.49116734 0.64852638 -0.58152230
vn -0.11126956 0.80588520 -0.58152225
vn -0.64852624 0.49116748 -0.58152233
vn -0.80588505 -0.11126941 -0.58152250
vn -0.49116729 -0.64852611 -0.58152264
vn 0.11126961 -0.80588489 -0.58152268
vn 0.64852626 -0.49116714 -0.58152259
vn 0.80588507 -0.11126961 0.58152243
vn 0.64852620 0.49116722 0.58152260
vn 0.11126946 0.80588490 0.58152268
vn -0.49116741 0.64852602 0.58152264
vn -0.80588506 0.11126930 0.58152250
vn -0.64852616 -0.49116758 0.58152234
vn -0.11126940 -0.80588522 0.58152225
vn 0.49116744 -0.64852631 0.58152229
vn 1.3164851e-16 -2.6631611e-7 1.00000000
g Model::Cylinder03_Material::01 - Default  ( Standard )
usemtl Material::01 - Default  ( Standard )
f 1/11/1 3/17/3 2/15/2
f 1/11/1 4/3/4 3/1/3
f 1/11/1 5/5/5 4/3/4
f 1/11/1 6/7/6 5/5/5
f 1/11/1 7/9/7 6/7/6
f 1/11/1 8/11/8 7/9/7
f 1/11/1 9/13/9 8/11/8
f 2/15/2 9/13/9 1/11/1
f 2/15/2 10/16/10 9/13/9
f 2/15/2 11/18/11 10/16/10
f 3/17/3 11/18/11 2/15/2
f 3/1/3 12/4/12 11/2/11
f 4/3/4 12/4/12 3/1/3
f 4/3/4 13/6/13 12/4/12
f 5/5/5 13/6/13 4/3/4
f 5/5/5 14/8/14 13/6/13
f 6/7/6 14/8/14 5/5/5
f 6/7/6 15/10/15 14/8/14
f 7/9/7 15/10/15 6/7/6
f 7/9/7 16/12/16 15/10/15
f 8/11/8 16/12/16 7/9/7
f 8/11/8 17/14/17 16/12/16
f 9/13/9 17/14/17 8/11/8
f 10/16/10 17/14/17 9/13/9
f 10/16/10 18/12/18 17/14/17
f 11/18/11 18/12/18 10/16/10
f 12/4/12 18/12/18 11/2/11
f 13/6/13 18/12/18 12/4/12
f 14/8/14 18/12/18 13/6/13
f 15/10/15 18/12/18 14/8/14
f 16/12/16 18/12/18 15/10/15
f 17/14/17 18/12/18 16/12/16
o Model::Cylinder02
#18 vertices, 32 faces
v -3.8450949e-8 -1.4609091e-8 3.85839424
v 0.43136326 -1.4609091e-8 3.85839424
v 0.30501986 0.30501991 3.85839432
v -5.7306438e-8 0.43136328 3.85839436
v -0.30501997 0.30501989 3.85839432
v -0.43136333 -5.2320071e-8 3.85839424
v -0.30501992 -0.30501997 3.85839416
v 1.8115517e-8 -0.43136331 3.85839413
v 0.30501991 -0.30501987 3.85839416
v 0.43136326 -4.0498439e-7 5.32422857
v 0.30501986 0.30501952 5.32422865
v -5.7306438e-8 0.43136289 5.32422869
v -0.30501997 0.30501950 5.32422865
v -0.43136333 -4.4269537e-7 5.32422857
v -0.30501992 -0.30502036 5.32422849
v 1.8115517e-8 -0.43136370 5.32422846
v 0.30501991 -0.30502026 5.32422849
v -3.8450949e-8 -4.0498439e-7 5.32422857
vt 0.71334922 0.47110763
vt 0.71334922 0.73220420
vt 0.74598634 0.47110763
vt 0.74598634 0.73220420
vt 0.77862340 0.47110763
vt 0.77862340 0.73220420
vt 0.81126046 0.47110763
vt 0.81126046 0.73220420
vt 0.84389758 0.47110763
vt 0.84389758 0.73220420
vt 0.87653458 0.47110763
vt 0.87653458 0.73220420
vt 0.90917170 0.47110763
vt 0.90917170 0.73220420
vt 0.94180876 0.47110763
vt 0.94180876 0.73220420
vt 0.97444582 0.47110763
vt 0.97444582 0.73220420
vn 4.4163612e-16 2.6631611e-7 -1.00000000
vn 0.80588505 0.11126968 -0.58152243
vn 0.49116734 0.64852638 -0.58152229
vn -0.11126954 0.80588521 -0.58152225
vn -0.64852624 0.49116748 -0.58152234
vn -0.80588504 -0.11126942 -0.58152250
vn -0.49116728 -0.64852611 -0.58152264
vn 0.11126964 -0.80588488 -0.58152268
vn 0.64852626 -0.49116716 -0.58152259
vn 0.80588506 -0.11126964 0.58152243
vn 0.64852620 0.49116722 0.58152260
vn 0.11126947 0.80588491 0.58152268
vn -0.49116739 0.64852603 0.58152264
vn -0.80588506 0.11126929 0.58152250
vn -0.64852616 -0.49116759 0.58152234
vn -0.11126939 -0.80588522 0.58152225
vn 0.49116746 -0.64852630 0.58152228
vn -6.3284900e-16 -2.6631611e-7 1.00000000
g Model::Cylinder02_Material::01 - Default  ( Standard )
usemtl Material::01 - Default  ( Standard )
f 19/29/19 21/35/21 20/33/20
f 19/29/19 22/21/22 21/19/21
f 19/29/19 23/23/23 22/21/22
f 19/29/19 24/25/24 23/23/23
f 19/29/19 25/27/25 24/25/24
f 19/29/19 26/29/26 25/27/25
f 19/29/19 27/31/27 26/29/26
f 20/33/20 27/31/27 19/29/19
f 20/33/20 28/34/28 27/31/27
f 20/33/20 29/36/29 28/34/28
f 21/35/21 29/36/29 20/33/20
f 21/19/21 30/22/30 29/20/29
f 22/21/22 30/22/30 21/19/21
f 22/21/22 31/24/31 30/22/30
f 23/23/23 31/24/31 22/21/22
f 23/23/23 32/26/32 31/24/31
f 24/25/24 32/26/32 23/23/23
f 24/25/24 33/28/33 32/26/32
f 25/27/25 33/28/33 24/25/24
f 25/27/25 34/30/34 33/28/33
f 26/29/26 34/30/34 25/27/25
f 26/29/26 35/32/35 34/30/34
f 27/31/27 35/32/35 26/29/26
f 28/34/28 35/32/35 27/31/27
f 28/34/28 36/30/36 35/32/35
f 29/36/29 36/30/36 28/34/28
f 30/22/30 36/30/36 29/20/29
f 31/24/31 36/30/36 30/22/30
f 32/26/32 36/30/36 31/24/31
f 33/28/33 36/30/36 32/26/32
f 34/30/34 36/30/36 33/28/33
f 35/32/35 36/30/36 34/30/34
o Model::Cylinder01
#34 vertices, 64 faces
v -2.3841858e-8 -4.9452239e-25 -3.5747121e-10
v 0.32839930 -4.9452239e-25 -3.5747121e-10
v 0.23221335 0.23221340 6.1484698e-8
v -3.8196649e-8 0.32839932 8.7100559e-8
v -0.23221343 0.23221338 6.1484692e-8
v -0.32839935 -2.8709582e-8 -3.5747885e-10
v -0.23221338 -0.23221343 -6.2199647e-8
v 1.9222514e-8 -0.32839932 -8.7815501e-8
v 0.23221340 -0.23221335 -6.2199628e-8
v 0.32839930 -5.4656479e-7 2.05231590
v 0.23221335 0.23221286 2.05231596
v -3.8196649e-8 0.32839878 2.05231599
v -0.23221343 0.23221283 2.05231596
v -0.32839935 -5.7527437e-7 2.05231590
v -0.23221338 -0.23221397 2.05231584
v 1.9222514e-8 -0.32839987 2.05231581
v 0.23221340 -0.23221390 2.05231584
v 0.32839930 -1.0931296e-6 4.10463181
v 0.23221335 0.23221231 4.10463187
v -3.8196649e-8 0.32839823 4.10463189
v -0.23221343 0.23221228 4.10463187
v -0.32839935 -1.1218392e-6 4.10463181
v -0.23221338 -0.23221452 4.10463174
v 1.9222514e-8 -0.32840042 4.10463172
v 0.23221340 -0.23221445 4.10463174
v 0.32839930 -1.6396944e-6 6.15694771
v 0.23221335 0.23221176 6.15694777
v -3.8196649e-8 0.32839768 6.15694780
v -0.23221343 0.23221174 6.15694777
v -0.32839935 -1.6684039e-6 6.15694771
v -0.23221338 -0.23221507 6.15694765
v 1.9222514e-8 -0.32840096 6.15694762
v 0.23221340 -0.23221499 6.15694765
v -2.3841858e-8 -1.6396944e-6 6.15694771
vt 6.7685321e-2 0.18901947
vt 6.7685321e-2 0.28059456
vt 6.7685321e-2 0.37216964
vt 6.7685321e-2 0.46374479
vt 0.10202600 0.18901947
vt 0.10202600 0.28059456
vt 0.10202600 0.37216964
vt 0.10202600 0.46374479
vt 0.13636665 0.18901947
vt 0.13636665 0.28059456
vt 0.13636665 0.37216964
vt 0.13636665 0.46374479
vt 0.17070733 0.18901947
vt 0.17070733 0.28059456
vt 0.17070733 0.37216964
vt 0.17070733 0.46374479
vt 0.20504798 0.18901947
vt 0.20504798 0.28059456
vt 0.20504798 0.37216964
vt 0.20504798 0.46374479
vt 0.23938863 0.18901947
vt 0.23938863 0.28059456
vt 0.23938863 0.37216964
vt 0.23938863 0.46374479
vt 0.27372926 0.18901947
vt 0.27372926 0.28059456
vt 0.27372926 0.37216964
vt 0.27372926 0.46374479
vt 0.30806994 0.18901947
vt 0.30806994 0.28059456
vt 0.30806994 0.37216964
vt 0.30806994 0.46374479
vt 0.34241062 0.18901947
vt 0.34241062 0.28059456
vt 0.34241062 0.37216964
vt 0.34241062 0.46374479
vn 1.5962396e-24 2.6631611e-7 -1.00000000
vn 0.80588505 0.11126969 -0.58152243
vn 0.49116734 0.64852638 -0.58152229
vn -0.11126954 0.80588520 -0.58152225
vn -0.64852624 0.49116748 -0.58152234
vn -0.80588504 -0.11126943 -0.58152250
vn -0.49116727 -0.64852612 -0.58152264
vn 0.11126962 -0.80588488 -0.58152268
vn 0.64852626 -0.49116715 -0.58152259
vn 1.00000000 5.1336103e-8 1.3673102e-14
vn 0.70710676 0.70710681 1.8831393e-7
vn -4.7523743e-8 1.00000000 2.6631611e-7
vn -0.70710682 0.70710674 1.8831392e-7
vn -1.00000000 -9.5047480e-8 -2.5314146e-14
vn -0.70710669 -0.70710687 -1.8831395e-7
vn 1.4257123e-7 -1.00000000 -2.6631611e-7
vn 0.70710686 -0.70710670 -1.8831391e-7
vn 1.00000000 5.1336103e-8 1.3669462e-14
vn 0.70710676 0.70710681 1.8831393e-7
vn -4.7523743e-8 1.00000000 2.6631611e-7
vn -0.70710682 0.70710674 1.8831392e-7
vn -1.00000000 -9.5047480e-8 -2.5310506e-14
vn -0.70710669 -0.70710687 -1.8831395e-7
vn 1.4257123e-7 -1.00000000 -2.6631611e-7
vn 0.70710686 -0.70710670 -1.8831391e-7
vn 0.80588506 -0.11126961 0.58152243
vn 0.64852619 0.49116723 0.58152260
vn 0.11126947 0.80588490 0.58152268
vn -0.49116740 0.64852603 0.58152264
vn -0.80588506 0.11126928 0.58152250
vn -0.64852615 -0.49116760 0.58152234
vn -0.11126939 -0.80588523 0.58152225
vn 0.49116744 -0.64852631 0.58152229
vn 3.6396588e-16 -2.6631611e-7 1.00000000
g Model::Cylinder01_Material::01 - Default  ( Standard )
usemtl Material::01 - Default  ( Standard )
f 37/57/37 39/69/39 38/65/38
f 37/57/37 40/41/40 39/37/39
f 37/57/37 41/45/41 40/41/40
f 37/57/37 42/49/42 41/45/41
f 37/57/37 43/53/43 42/49/42
f 37/57/37 44/57/44 43/53/43
f 37/57/37 45/61/45 44/57/44
f 38/65/38 45/61/45 37/57/37
f 38/65/38 46/66/46 45/61/45
f 38/65/38 47/70/47 46/66/46
f 39/69/39 47/70/47 38/65/38
f 39/37/39 48/42/48 47/38/47
f 40/41/40 48/42/48 39/37/39
f 40/41/40 49/46/49 48/42/48
f 41/45/41 49/46/49 40/41/40
f 41/45/41 50/50/50 49/46/49
f 42/49/42 50/50/50 41/45/41
f 42/49/42 51/54/51 50/50/50
f 43/53/43 51/54/51 42/49/42
f 43/53/43 52/58/52 51/54/51
f 44/57/44 52/58/52 43/53/43
f 44/57/44 53/62/53 52/58/52
f 45/61/45 53/62/53 44/57/44
f 46/66/46 53/62/53 45/61/45
f 46/66/46 54/67/54 53/62/53
f 46/66/46 55/71/55 54/67/54
f 47/70/47 55/71/55 46/66/46
f 47/38/47 56/43/56 55/39/55
f 48/42/48 56/43/56 47/38/47
f 48/42/48 57/47/57 56/43/56
f 49/46/49 57/47/57 48/42/48
f 49/46/49 58/51/58 57/47/57
f 50/50/50 58/51/58 49/46/49
f 50/50/50 59/55/59 58/51/58
f 51/54/51 59/55/59 50/50/50
f 51/54/51 60/59/60 59/55/59
f 52/58/52 60/59/60 51/54/51
f 52/58/52 61/63/61 60/59/60
f 53/62/53 61/63/61 52/58/52
f 54/67/54 61/63/61 53/62/53
f 54/67/54 62/68/62 61/63/61
f 54/67/54 63/72/63 62/68/62
f 55/71/55 63/72/63 54/67/54
f 55/39/55 64/44/64 63/40/63
f 56/43/56 64/44/64 55/39/55
f 56/43/56 65/48/65 64/44/64
f 57/47/57 65/48/65 56/43/56
f 57/47/57 66/52/66 65/48/65
f 58/51/58 66/52/66 57/47/57
f 58/51/58 67/56/67 66/52/66
f 59/55/59 67/56/67 58/51/58
f 59/55/59 68/60/68 67/56/67
f 60/59/60 68/60/68 59/55/59
f 60/59/60 69/64/69 68/60/68
f 61/63/61 69/64/69 60/59/60
f 62/68/62 69/64/69 61/63/61
f 62/68/62 70/60/70 69/64/69
f 63/72/63 70/60/70 62/68/62
f 64/44/64 70/60/70 63/40/63
f 65/48/65 70/60/70 64/44/64
f 66/52/66 70/60/70 65/48/65
f 67/56/67 70/60/70 66/52/66
f 68/60/68 70/60/70 67/56/67
f 69/64/69 70/60/70 68/60/68
