# Exported from Wings 3D 0.98.32a
mtllib dzlufy.mtl
o Model::Box02
#8 vertices, 12 faces
v -0.82631068 -1.1387817e-2 3.39573727
v 0.88049855 -1.1387817e-2 3.39573727
v -0.82631068 -1.1387817e-2 2.78128605
v 0.88049855 -1.1387817e-2 2.78128605
v -0.82631068 4.2796572e-2 3.39573727
v 0.88049855 4.2796572e-2 3.39573727
v -0.82631068 4.2796572e-2 2.78128605
v 0.88049855 4.2796572e-2 2.78128605
vt 0.25863421 0.69124651
vt 0.25863421 0.87077975
vt 0.43816745 0.69124651
vt 0.43816745 0.87077975
vn -0.33333333 -0.66666667 0.66666667
vn 0.81649658 -0.40824829 0.40824829
vn -0.81649658 -0.40824829 -0.40824829
vn 0.33333333 -0.66666667 -0.66666667
vn -0.66666667 0.66666667 0.33333333
vn 0.40824829 0.40824829 0.81649658
vn -0.40824829 0.40824829 -0.81649658
vn 0.66666667 0.66666667 -0.33333333
g Model::Box02_Material::01 - Default  ( Standard )
usemtl Material::01 - Default  ( Standard )
f 1/3/1 4/2/4 2/1/2
f 1/3/1 5/4/5 3/1/3
f 1/1/1 6/4/6 5/2/5
f 2/3/2 6/4/6 1/1/1
f 2/1/2 8/4/8 6/2/6
f 3/4/3 4/2/4 1/3/1
f 3/3/3 7/4/7 4/1/4
f 4/3/4 8/4/8 2/1/2
f 5/4/5 7/2/7 3/1/3
f 5/1/5 8/4/8 7/2/7
f 6/3/6 8/4/8 5/1/5
f 7/4/7 8/2/8 4/1/4
o Model::Cylinder06
#14 vertices, 24 faces
v 0.89591579 -4.9452239e-25 -3.5747121e-10
v 1.04369550 -4.9452239e-25 -3.5747121e-10
v 0.96980564 0.12798098 3.3725926e-8
v 0.82202594 0.12798097 3.3725923e-8
v 0.74813609 -1.2919313e-8 -3.5747465e-10
v 0.82202596 -0.12798098 -3.4440869e-8
v 0.96980566 -0.12798097 -3.4440866e-8
v 1.04369550 -1.6396944e-6 6.15694771
v 0.96980564 0.12797934 6.15694774
v 0.82202594 0.12797933 6.15694774
v 0.74813609 -1.6526137e-6 6.15694771
v 0.82202596 -0.12798262 6.15694767
v 0.96980566 -0.12798261 6.15694767
v 0.89591579 -1.6396944e-6 6.15694771
vt 7.8222290e-2 0.72045135
vt 7.8222290e-2 0.75039291
vt 7.8222290e-2 0.78033441
vt 7.8222290e-2 0.79530519
vt 7.8222290e-2 0.81027597
vt 7.8222290e-2 0.84021753
vt 7.8222290e-2 0.87015909
vt 7.8222319e-2 0.69050980
vt 0.44291037 0.84021759
vt 0.44291037 0.87015915
vt 0.44291043 0.69050980
vt 0.44291043 0.72045135
vt 0.44291043 0.75039291
vt 0.44291043 0.78033447
vt 0.44291043 0.79530525
vt 0.44291043 0.81027603
vn 6.4011184e-25 2.6631611e-7 -1.00000000
vn 0.78334945 0.15075586 -0.60302264
vn 0.26111644 0.75377853 -0.60302249
vn -0.52223301 0.60302282 -0.60302253
vn -0.78334943 -0.15075560 -0.60302274
vn -0.26111641 -0.75377823 -0.60302289
vn 0.52223302 -0.60302248 -0.60302285
vn 0.78334947 -0.15075578 0.60302264
vn 0.52223294 0.60302254 0.60302286
vn -0.26111654 0.75377818 0.60302289
vn -0.78334946 0.15075545 0.60302274
vn -0.52223290 -0.60302291 0.60302252
vn 0.26111655 -0.75377850 0.60302249
vn -2.2334193e-15 -2.6631611e-7 1.00000000
g Model::Cylinder06_Material::01 - Default  ( Standard )
usemtl Material::01 - Default  ( Standard )
f 9/19/9 11/14/11 10/13/10
f 9/19/9 12/16/12 11/15/11
f 9/19/9 13/17/13 12/16/12
f 9/19/9 14/18/14 13/17/13
f 9/19/9 15/20/15 14/18/14
f 10/13/10 15/20/15 9/19/9
f 10/13/10 16/10/16 15/20/15
f 10/13/10 17/11/17 16/10/16
f 11/14/11 17/11/17 10/13/10
f 11/15/11 18/5/18 17/12/17
f 12/16/12 18/5/18 11/15/11
f 12/16/12 19/6/19 18/5/18
f 13/17/13 19/6/19 12/16/12
f 13/17/13 20/7/20 19/6/19
f 14/18/14 20/7/20 13/17/13
f 14/18/14 21/9/21 20/7/20
f 15/20/15 21/9/21 14/18/14
f 16/10/16 21/9/21 15/20/15
f 16/10/16 22/8/22 21/9/21
f 17/11/17 22/8/22 16/10/16
f 18/5/18 22/8/22 17/12/17
f 19/6/19 22/8/22 18/5/18
f 20/7/20 22/8/22 19/6/19
f 21/9/21 22/8/22 20/7/20
o Model::Cylinder05
#14 vertices, 24 faces
v 0.89591579 -1.4609095e-8 4.83335228
v 1.08571565 -1.4609095e-8 4.83335228
v 0.99081572 0.16437149 4.83335232
v 0.80101585 0.16437148 4.83335232
v 0.70611594 -3.1201926e-8 4.83335228
v 0.80101588 -0.16437153 4.83335224
v 0.99081575 -0.16437149 4.83335224
v 1.08571565 -4.0498439e-7 6.29918661
v 0.99081572 0.16437110 6.29918665
v 0.80101585 0.16437109 6.29918665
v 0.70611594 -4.2157722e-7 6.29918661
v 0.80101588 -0.16437192 6.29918657
v 0.99081575 -0.16437188 6.29918657
v 0.89591579 -4.0498439e-7 6.29918661
vt 4.9356729e-2 9.0461612e-2
vt 4.9356729e-2 0.38115931
vt 9.7806364e-2 9.0461612e-2
vt 9.7806364e-2 0.38115931
vt 0.14625597 9.0461612e-2
vt 0.14625597 0.38115931
vt 0.19470561 9.0461612e-2
vt 0.19470561 0.38115931
vt 0.21893039 9.0461612e-2
vt 0.21893039 0.38115931
vt 0.24315521 9.0461612e-2
vt 0.24315521 0.38115931
vt 0.29160482 9.0461612e-2
vt 0.29160482 0.38115931
vt 0.34005442 9.0461612e-2
vt 0.34005442 0.38115931
vn 4.4010234e-16 2.6631611e-7 -1.00000000
vn 0.78334945 0.15075586 -0.60302264
vn 0.26111645 0.75377853 -0.60302249
vn -0.52223301 0.60302281 -0.60302253
vn -0.78334944 -0.15075558 -0.60302273
vn -0.26111636 -0.75377823 -0.60302290
vn 0.52223303 -0.60302249 -0.60302284
vn 0.78334946 -0.15075580 0.60302264
vn 0.52223295 0.60302254 0.60302285
vn -0.26111653 0.75377818 0.60302289
vn -0.78334946 0.15075545 0.60302273
vn -0.52223290 -0.60302290 0.60302254
vn 0.26111660 -0.75377849 0.60302248
vn -6.1729964e-15 -2.6631611e-7 1.00000000
g Model::Cylinder05_Material::01 - Default  ( Standard )
usemtl Material::01 - Default  ( Standard )
f 23/29/23 25/35/25 24/33/24
f 23/29/23 26/23/26 25/21/25
f 23/29/23 27/25/27 26/23/26
f 23/29/23 28/27/28 27/25/27
f 23/29/23 29/31/29 28/27/28
f 24/33/24 29/31/29 23/29/23
f 24/33/24 30/34/30 29/31/29
f 24/33/24 31/36/31 30/34/30
f 25/35/25 31/36/31 24/33/24
f 25/21/25 32/24/32 31/22/31
f 26/23/26 32/24/32 25/21/25
f 26/23/26 33/26/33 32/24/32
f 27/25/27 33/26/33 26/23/26
f 27/25/27 34/28/34 33/26/33
f 28/27/28 34/28/34 27/25/27
f 28/27/28 35/32/35 34/28/34
f 29/31/29 35/32/35 28/27/28
f 30/34/30 35/32/35 29/31/29
f 30/34/30 36/30/36 35/32/35
f 31/36/31 36/30/36 30/34/30
f 32/24/32 36/30/36 31/22/31
f 33/26/33 36/30/36 32/24/32
f 34/28/34 36/30/36 33/26/33
f 35/32/35 36/30/36 34/28/34
o Model::Cylinder02
#14 vertices, 24 faces
v -0.86684475 -1.4609095e-8 4.83335228
v -0.67704489 -1.4609095e-8 4.83335228
v -0.77194483 0.16437149 4.83335232
v -0.96174469 0.16437148 4.83335232
v -1.05664461 -3.1201926e-8 4.83335228
v -0.96174466 -0.16437153 4.83335224
v -0.77194480 -0.16437149 4.83335224
v -0.67704489 -4.0498439e-7 6.29918661
v -0.77194483 0.16437110 6.29918665
v -0.96174469 0.16437109 6.29918665
v -1.05664461 -4.2157722e-7 6.29918661
v -0.96174466 -0.16437192 6.29918657
v -0.77194480 -0.16437188 6.29918657
v -0.86684475 -4.0498439e-7 6.29918661
vt 4.9356729e-2 9.0461612e-2
vt 4.9356729e-2 0.38115931
vt 9.7806364e-2 9.0461612e-2
vt 9.7806364e-2 0.38115931
vt 0.14625597 9.0461612e-2
vt 0.14625597 0.38115931
vt 0.19470561 9.0461612e-2
vt 0.19470561 0.38115931
vt 0.21893039 9.0461612e-2
vt 0.21893039 0.38115931
vt 0.24315521 9.0461612e-2
vt 0.24315521 0.38115931
vt 0.29160482 9.0461612e-2
vt 0.29160482 0.38115931
vt 0.34005442 9.0461612e-2
vt 0.34005442 0.38115931
vn 4.4010234e-16 2.6631611e-7 -1.00000000
vn 0.78334945 0.15075586 -0.60302264
vn 0.26111645 0.75377853 -0.60302249
vn -0.52223301 0.60302281 -0.60302253
vn -0.78334944 -0.15075558 -0.60302273
vn -0.26111636 -0.75377823 -0.60302290
vn 0.52223303 -0.60302249 -0.60302284
vn 0.78334946 -0.15075580 0.60302264
vn 0.52223295 0.60302254 0.60302285
vn -0.26111653 0.75377818 0.60302289
vn -0.78334946 0.15075545 0.60302273
vn -0.52223290 -0.60302290 0.60302254
vn 0.26111660 -0.75377849 0.60302248
vn -6.1729964e-15 -2.6631611e-7 1.00000000
g Model::Cylinder02_Material::01 - Default  ( Standard )
usemtl Material::01 - Default  ( Standard )
f 37/45/37 39/51/39 38/49/38
f 37/45/37 40/39/40 39/37/39
f 37/45/37 41/41/41 40/39/40
f 37/45/37 42/43/42 41/41/41
f 37/45/37 43/47/43 42/43/42
f 38/49/38 43/47/43 37/45/37
f 38/49/38 44/50/44 43/47/43
f 38/49/38 45/52/45 44/50/44
f 39/51/39 45/52/45 38/49/38
f 39/37/39 46/40/46 45/38/45
f 40/39/40 46/40/46 39/37/39
f 40/39/40 47/42/47 46/40/46
f 41/41/41 47/42/47 40/39/40
f 41/41/41 48/44/48 47/42/47
f 42/43/42 48/44/48 41/41/41
f 42/43/42 49/48/49 48/44/48
f 43/47/43 49/48/49 42/43/42
f 44/50/44 49/48/49 43/47/43
f 44/50/44 50/46/50 49/48/49
f 45/52/45 50/46/50 44/50/44
f 46/40/46 50/46/50 45/38/45
f 47/42/47 50/46/50 46/40/46
f 48/44/48 50/46/50 47/42/47
f 49/48/49 50/46/50 48/44/48
o Model::Cylinder01
#14 vertices, 24 faces
v -0.86684475 -4.9452239e-25 -3.5747121e-10
v -0.71906505 -4.9452239e-25 -3.5747121e-10
v -0.79295490 0.12798098 3.3725926e-8
v -0.94073461 0.12798097 3.3725923e-8
v -1.01462445 -1.2919313e-8 -3.5747465e-10
v -0.94073458 -0.12798098 -3.4440869e-8
v -0.79295488 -0.12798097 -3.4440866e-8
v -0.71906505 -1.6396944e-6 6.15694771
v -0.79295490 0.12797934 6.15694774
v -0.94073461 0.12797933 6.15694774
v -1.01462445 -1.6526137e-6 6.15694771
v -0.94073458 -0.12798262 6.15694767
v -0.79295488 -0.12798261 6.15694767
v -0.86684475 -1.6396944e-6 6.15694771
vt 7.8222290e-2 0.72045135
vt 7.8222290e-2 0.75039291
vt 7.8222290e-2 0.78033441
vt 7.8222290e-2 0.79530519
vt 7.8222290e-2 0.81027597
vt 7.8222290e-2 0.84021753
vt 7.8222290e-2 0.87015909
vt 7.8222319e-2 0.69050980
vt 0.44291037 0.84021759
vt 0.44291037 0.87015915
vt 0.44291043 0.69050980
vt 0.44291043 0.72045135
vt 0.44291043 0.75039291
vt 0.44291043 0.78033447
vt 0.44291043 0.79530525
vt 0.44291043 0.81027603
vn 6.4011184e-25 2.6631611e-7 -1.00000000
vn 0.78334945 0.15075586 -0.60302264
vn 0.26111644 0.75377853 -0.60302249
vn -0.52223301 0.60302282 -0.60302253
vn -0.78334943 -0.15075560 -0.60302274
vn -0.26111641 -0.75377823 -0.60302289
vn 0.52223302 -0.60302248 -0.60302285
vn 0.78334947 -0.15075578 0.60302264
vn 0.52223294 0.60302254 0.60302286
vn -0.26111654 0.75377818 0.60302289
vn -0.78334946 0.15075545 0.60302274
vn -0.52223290 -0.60302291 0.60302252
vn 0.26111655 -0.75377850 0.60302249
vn -2.2334193e-15 -2.6631611e-7 1.00000000
g Model::Cylinder01_Material::01 - Default  ( Standard )
usemtl Material::01 - Default  ( Standard )
f 51/67/51 53/62/53 52/61/52
f 51/67/51 54/64/54 53/63/53
f 51/67/51 55/65/55 54/64/54
f 51/67/51 56/66/56 55/65/55
f 51/67/51 57/68/57 56/66/56
f 52/61/52 57/68/57 51/67/51
f 52/61/52 58/58/58 57/68/57
f 52/61/52 59/59/59 58/58/58
f 53/62/53 59/59/59 52/61/52
f 53/63/53 60/53/60 59/60/59
f 54/64/54 60/53/60 53/63/53
f 54/64/54 61/54/61 60/53/60
f 55/65/55 61/54/61 54/64/54
f 55/65/55 62/55/62 61/54/61
f 56/66/56 62/55/62 55/65/55
f 56/66/56 63/57/63 62/55/62
f 57/68/57 63/57/63 56/66/56
f 58/58/58 63/57/63 57/68/57
f 58/58/58 64/56/64 63/57/63
f 59/59/59 64/56/64 58/58/58
f 60/53/60 64/56/64 59/60/59
f 61/54/61 64/56/64 60/53/60
f 62/55/62 64/56/64 61/54/61
f 63/57/63 64/56/64 62/55/62
