# Exported from Wings 3D 0.98.32a
mtllib sc6.mtl
o Model::Loft01
#105 vertices, 206 faces
v 0.17729244 -3.18566223 0.96389368
v 0.26677761 -3.09925762 1.35727618
v 0.63434768 -3.42004657 1.18704072
v 0.41628184 -3.39893543 0.84078532
v 0.26021345 -3.27291317 0.88614847
v 1.96759155 -0.11715448 0.27923531
v 2.85075245 -0.53390393 0.80596949
v 2.87668869 -1.04130272 -0.48741714
v 1.95940232 -0.43868056 -0.58575393
v 1.89410886 -0.20508999 -8.8688748e-2
v 4.25644805 2.33724188 -8.8902142e-2
v 5.88912850 1.89675677 -1.14033980
v 4.30832166 2.34136421 -2.69761509
v 3.17098433 2.64199781 -1.08221352
v 3.71729154 2.48718853 -0.37938314
v 4.48721491 4.11681215 0.53586195
v 5.83684919 4.70029194 -0.90636824
v 3.49351778 4.83829594 -1.97561176
v 2.90875083 4.19082983 -0.12557742
v 3.78485173 4.09819365 0.40158433
v 4.71235221 6.10740733 1.06507514
v 5.51795596 6.83935888 -0.97541513
v 2.64140826 6.62461875 -1.23658467
v 2.79903250 5.94537958 0.95174879
v 3.92717626 5.98800941 1.18502029
v 4.69865170 6.87517202 1.31935794
v 5.46096048 7.64265601 -0.84340461
v 2.45035442 7.36576161 -1.02127380
v 2.69847342 6.67128489 1.26426538
v 3.88419751 6.73716874 1.47099256
v 4.68363532 7.62202024 1.56147241
v 5.39562668 8.42332908 -0.72425249
v 2.25383689 8.07879424 -0.80980297
v 2.59868815 7.37271731 1.57055961
v 3.84125004 7.46420754 1.74709214
v 4.37160429 15.30329355 3.59705539
v 3.82044466 16.20457896 -0.36100241
v -0.64617634 14.45010348 1.45353598
v 1.45214385 14.12460160 4.90255327
v 3.31545079 14.78730736 4.40447943
v 2.30405982 20.36221352 3.61470637
v 1.00186630 18.86569112 -0.95355664
v -1.86351588 15.33465089 3.31447505
v 0.45829976 18.08457296 6.54993382
v 1.71235410 19.62326047 5.08487149
v 0.92387154 21.14106896 3.29987943
v 0.86581513 18.52971907 -0.90408588
v -1.04177327 14.85613260 3.70912165
v -0.32802773 18.80160727 6.45152862
v 0.45676898 20.46768422 4.82255627
v -0.60460101 21.21936559 2.70640344
v 1.08429608 18.16052820 -0.78855224
v -5.8734942e-2 14.81444129 4.29093545
v -1.40398947 19.10790346 6.14420781
v -1.04044196 20.66756277 4.28039148
v -1.69410053 20.75886551 2.08086503
v 1.18578781 17.87228313 -0.62652847
v 0.25396536 15.02399138 4.72063425
v -2.38872292 18.96960456 5.67206842
v -2.18539860 20.31474148 3.64987898
v -2.48828792 20.04591198 1.46114275
v 1.08605575 17.45097395 -0.58728810
v 8.2193199e-3 15.04761174 4.91201748
v -3.29870399 18.54069975 5.13349822
v -3.07857357 19.68557301 3.00820961
v -3.54521026 16.52162595 -0.81977374
v 0.17407479 13.95034718 0.20250221
v -3.40840014 13.65279474 4.76133108
v -6.00567257 16.39955606 2.14682015
v -4.76880572 16.68058592 0.21658747
v -4.92186099 10.44713931 -3.15056757
v -2.23643410 9.77008550 0.50550090
v -6.98765862 10.91246074 2.58994020
v -8.12081990 11.21718747 -1.88525173
v -6.34132148 10.79127076 -2.96520764
v -4.53244596 7.03966030 -0.78752797
v -3.81565242 8.36868350 2.59331855
v -8.41200571 8.57549467 2.01440542
v -7.57338640 7.13759282 -1.26455179
v -5.73544331 6.97062579 -1.23676390
v -4.78628126 4.41090662 1.38603620
v -5.82558955 5.56659194 3.93569531
v -8.78841319 4.94586517 1.73981521
v -6.70358536 3.96998117 -0.12981780
v -5.42590039 4.15264089 0.61161106
v -5.03043284 3.40823744 2.13281270
v -6.47546427 4.40351868 4.19950396
v -8.68500942 3.60412820 1.74855106
v -6.44113327 2.85448738 0.46313865
v -5.44681775 3.12024386 1.33892390
v -5.24150513 2.70636130 2.88291287
v -6.80026710 2.27333091 4.70627569
v -8.63170753 1.75775381 1.75488026
v -6.40048694 2.37992574 0.89132902
v -5.55397379 2.61787341 1.98712058
v -3.68137400 -0.84646637 1.41392623
v -4.84598645 -1.73666170 1.45472383
v -4.86338199 -0.91218254 -0.18627374
v -3.65953052 -0.27923190 0.33439090
v -3.58031165 -0.56176797 1.00389287
v -1.71530403 -4.19092648 -0.60529028
v -2.09190369 -4.32035390 -0.90229758
v -1.74978372 -3.90549341 -1.21524457
v -1.47972273 -3.91460562 -0.80245528
v -1.59651547 -4.07648942 -0.65590986
vt 0.0000000e+0 0.0000000e+0
vt 0.0000000e+0 6.6102274e-2
vt 0.0000000e+0 0.13220453
vt 0.0000000e+0 0.17201981
vt 0.0000000e+0 0.20919235
vt 0.0000000e+0 0.22391996
vt 0.0000000e+0 0.23818991
vt 0.0000000e+0 0.37836087
vt 0.0000000e+0 0.45133439
vt 0.0000000e+0 0.46292031
vt 0.0000000e+0 0.47398207
vt 0.0000000e+0 0.48577252
vt 0.0000000e+0 0.50044394
vt 0.0000000e+0 0.56792283
vt 0.0000000e+0 0.67427671
vt 0.0000000e+0 0.73456734
vt 0.0000000e+0 0.79485786
vt 0.0000000e+0 0.81751931
vt 0.0000000e+0 0.84018075
vt 0.0000000e+0 0.92009032
vt 0.0000000e+0 1.00000000
vt 0.24442068 0.0000000e+0
vt 0.24442068 6.6102274e-2
vt 0.24442068 0.13220453
vt 0.24442068 0.17201981
vt 0.24442068 0.20919235
vt 0.24442068 0.22391996
vt 0.24442068 0.23818991
vt 0.24442068 0.37836087
vt 0.24442068 0.45133439
vt 0.24442068 0.46292031
vt 0.24442068 0.47398207
vt 0.24442068 0.48577252
vt 0.24442068 0.50044394
vt 0.24442068 0.56792283
vt 0.24442068 0.67427671
vt 0.24442068 0.73456734
vt 0.24442068 0.79485786
vt 0.24442068 0.81751931
vt 0.24442068 0.84018075
vt 0.24442068 0.92009032
vt 0.24442068 1.00000000
vt 0.55053186 0.0000000e+0
vt 0.55053186 6.6102274e-2
vt 0.55053186 0.13220453
vt 0.55053186 0.17201981
vt 0.55053186 0.20919235
vt 0.55053186 0.22391996
vt 0.55053186 0.23818991
vt 0.55053186 0.37836087
vt 0.55053186 0.45133439
vt 0.55053186 0.46292031
vt 0.55053186 0.47398207
vt 0.55053186 0.48577252
vt 0.55053186 0.50044394
vt 0.55053186 0.56792283
vt 0.55053186 0.67427671
vt 0.55053186 0.73456734
vt 0.55053186 0.79485786
vt 0.55053186 0.81751931
vt 0.55053186 0.84018075
vt 0.55053186 0.92009032
vt 0.55053186 1.00000000
vt 0.79327261 0.0000000e+0
vt 0.79327261 6.6102274e-2
vt 0.79327261 0.13220453
vt 0.79327261 0.17201981
vt 0.79327261 0.20919235
vt 0.79327261 0.22391996
vt 0.79327261 0.23818991
vt 0.79327261 0.37836087
vt 0.79327261 0.45133439
vt 0.79327261 0.46292031
vt 0.79327261 0.47398207
vt 0.79327261 0.48577252
vt 0.79327261 0.50044394
vt 0.79327261 0.56792283
vt 0.79327261 0.67427671
vt 0.79327261 0.73456734
vt 0.79327261 0.79485786
vt 0.79327261 0.81751931
vt 0.79327261 0.84018075
vt 0.79327261 0.92009032
vt 0.79327261 1.00000000
vt 0.91511035 0.0000000e+0
vt 0.91511035 6.6102274e-2
vt 0.91511035 0.13220453
vt 0.91511035 0.17201981
vt 0.91511035 0.20919235
vt 0.91511035 0.22391996
vt 0.91511035 0.23818991
vt 0.91511035 0.37836087
vt 0.91511035 0.45133439
vt 0.91511035 0.46292031
vt 0.91511035 0.47398207
vt 0.91511035 0.48577252
vt 0.91511035 0.50044394
vt 0.91511035 0.56792283
vt 0.91511035 0.67427671
vt 0.91511035 0.73456734
vt 0.91511035 0.79485786
vt 0.91511035 0.81751931
vt 0.91511035 0.84018075
vt 0.91511035 0.92009032
vt 0.91511035 1.00000000
vt 1.00000000 0.0000000e+0
vt 1.00000000 6.6102274e-2
vt 1.00000000 0.13220453
vt 1.00000000 0.17201981
vt 1.00000000 0.20919235
vt 1.00000000 0.22391996
vt 1.00000000 0.23818991
vt 1.00000000 0.37836087
vt 1.00000000 0.45133439
vt 1.00000000 0.46292031
vt 1.00000000 0.47398207
vt 1.00000000 0.48577252
vt 1.00000000 0.50044394
vt 1.00000000 0.56792283
vt 1.00000000 0.67427671
vt 1.00000000 0.73456734
vt 1.00000000 0.79485786
vt 1.00000000 0.81751931
vt 1.00000000 0.84018075
vt 1.00000000 0.92009032
vt 1.00000000 1.00000000
vn -0.91318291 -0.30694207 0.26811106
vn -2.5132623e-2 -0.38879898 0.92097975
vn -4.2494219e-2 -0.99814459 4.3607579e-2
vn -0.60659987 -0.69317281 -0.38929173
vn -0.86056809 -8.9575354e-2 -0.50139687
vn -0.62773825 0.61172037 0.48139680
vn 0.48578580 2.0069568e-2 0.87384745
vn 0.52050560 -0.66524710 -0.53527583
vn -0.63341202 1.2924658e-2 -0.77370677
vn -0.86556410 0.48155943 -0.13747477
vn 3.2483557e-2 3.4024055e-2 0.99889298
vn 0.98736651 8.4797982e-3 0.15822602
vn -0.21493717 -0.26046147 -0.94125546
vn -0.99286398 -9.4928682e-2 -7.2177955e-2
vn -0.69392626 6.8422314e-2 0.71678779
vn 0.32758482 -0.26492822 0.90691853
vn 0.97649930 0.11268297 -0.18371625
vn -0.39355373 0.14902083 -0.90714291
vn -0.91702213 -0.28893576 0.27493005
vn -0.34391836 -0.37493686 0.86089634
vn 0.60766300 -0.23981910 0.75712118
vn 0.86447992 0.12091095 -0.48790881
vn -0.64803698 -9.7964497e-3 -0.76154586
vn -0.74987318 -0.39382668 0.53159266
vn -4.0322452e-2 -0.38390234 0.92249287
vn 0.67168245 -0.20516923 0.71186253
vn 0.82399929 0.15804877 -0.54410086
vn -0.70906459 1.2313578e-2 -0.70503602
vn -0.70484586 -0.37133093 0.60440521
vn 4.4239605e-2 -0.35496453 0.93383245
vn 0.73316003 -0.14040348 0.66540456
vn 0.77738598 0.18334961 -0.60170920
vn -0.75101281 -5.8325140e-2 -0.65770657
vn -0.63201916 -0.40460086 0.66094624
vn 0.14408307 -0.33185539 0.93226180
vn 0.86799862 0.20096775 0.45408189
vn 0.52052493 0.38365279 -0.76280032
vn -0.85516599 -0.30331521 -0.42034629
vn -0.28826520 -0.39996983 0.87001569
vn 0.47294150 -9.8619952e-2 0.87555722
vn 0.59856927 0.73943466 0.30814156
vn 0.70470971 0.70664906 -6.3492745e-2
vn -0.95773614 -0.17965938 -0.22464190
vn 8.2582739e-2 -0.15255481 0.98483863
vn 0.54571243 0.42558638 0.72185468
vn 0.15185234 0.97336368 0.17176732
vn 2.4883913e-2 0.84073477 0.54087506
vn 0.64887088 0.70642657 0.28271554
vn -2.2430382e-3 0.45954271 0.88815284
vn 0.14119599 0.78954719 0.59722603
vn -0.27997037 0.95299223 -0.11585511
vn -0.41941945 0.82482408 0.37914715
vn 0.12075717 0.95637838 0.26600394
vn -0.32006982 0.55170713 0.77017826
vn -0.25145797 0.86539772 0.43342320
vn -0.41833606 0.82005173 -0.39052541
vn -0.11255243 -3.7561378e-2 -0.99293559
vn 0.26007484 0.66092549 0.70394501
vn -0.50875039 0.54762550 0.66428861
vn -0.54254494 0.80072984 0.25392264
vn -0.47312154 0.65226738 -0.59220205
vn 0.43496656 -0.21891727 -0.87342963
vn 0.35088153 -0.60813187 0.71207990
vn -0.57929324 0.43429705 0.68978650
vn -0.72752068 0.68608508 -9.5489803e-4
vn -8.7332158e-2 0.42115372 -0.90277497
vn 0.82272584 -0.42692997 -0.37530386
vn -3.8247885e-2 -0.29643755 0.95428606
vn -0.82772417 0.51046307 0.23302394
vn -0.59018274 0.62964614 -0.50520301
vn 0.33485725 -0.14621975 -0.93085466
vn 0.91960857 -0.34121667 0.19465678
vn -0.50443318 -8.6930246e-2 0.85906362
vn -0.91088477 0.15453794 -0.38263163
vn -0.31954265 5.3456118e-2 -0.94606286
vn 0.72816619 -0.45423209 -0.51327109
vn 0.66866622 -2.3680521e-2 0.74318552
vn -0.85125737 0.29665694 0.43284588
vn -0.57859354 -0.19029536 -0.79310604
vn 0.16062148 -0.44287275 -0.88207963
vn 0.94844886 -0.30400323 -8.9592411e-2
vn 0.25946506 0.13265937 0.95659781
vn -0.99712279 5.3662954e-2 5.3539055e-2
vn -0.15036389 -0.37701652 -0.91391971
vn 0.60913094 -0.41269923 -0.67722880
vn 0.98225290 -0.12911220 0.13604885
vn 5.3811844e-2 0.17661776 0.98280743
vn -0.99050816 -5.6707296e-2 -0.12521129
vn 6.0714722e-2 -0.54530942 -0.83603311
vn 0.74615804 -0.46940839 -0.47212704
vn 0.94358103 -9.9279185e-2 0.31590898
vn 9.6543564e-3 -0.21148818 0.97733287
vn -0.91871480 -5.3440192e-2 -0.39128923
vn 0.24428702 2.9066062e-2 -0.96926726
vn 0.93561630 -3.5942909e-2 -0.35118407
vn 0.67294542 -4.5189996e-2 0.73831045
vn -0.40283669 -0.76404607 0.50394068
vn -0.50392528 -2.6396495e-2 -0.86334381
vn 0.61947189 0.63057886 -0.46757340
vn 0.85737610 0.43138155 0.28074220
vn 0.68792407 -0.69378063 0.21314061
vn -5.7408558e-2 -0.97193622 0.22813207
vn 0.12085649 -0.53841233 -0.83396995
vn 0.88841081 -6.6238422e-2 -0.45424521
vn 0.89186285 -8.2324666e-2 0.44475083
g Model::Loft01_Material::01 - Default  ( Standard )
usemtl Material::01 - Default  ( Standard )
f 1/1/1 3/1/3 2/1/2
f 1/1/1 4/1/4 3/1/3
f 1/1/1 5/1/5 4/1/4
f 1/106/1 6/107/6 5/85/5
f 1/1/1 7/23/7 6/2/6
f 2/22/2 7/23/7 1/1/1
f 2/22/2 8/44/8 7/23/7
f 3/43/3 8/44/8 2/22/2
f 3/43/3 9/65/9 8/44/8
f 4/64/4 9/65/9 3/43/3
f 4/64/4 10/86/10 9/65/9
f 5/85/5 10/86/10 4/64/4
f 6/107/6 10/86/10 5/85/5
f 6/107/6 11/108/11 10/86/10
f 6/2/6 12/24/12 11/3/11
f 7/23/7 12/24/12 6/2/6
f 7/23/7 13/45/13 12/24/12
f 8/44/8 13/45/13 7/23/7
f 8/44/8 14/66/14 13/45/13
f 9/65/9 14/66/14 8/44/8
f 9/65/9 15/87/15 14/66/14
f 10/86/10 15/87/15 9/65/9
f 11/108/11 15/87/15 10/86/10
f 11/108/11 16/109/16 15/87/15
f 11/3/11 17/25/17 16/4/16
f 12/24/12 17/25/17 11/3/11
f 12/24/12 18/46/18 17/25/17
f 13/45/13 18/46/18 12/24/12
f 13/45/13 19/67/19 18/46/18
f 14/66/14 19/67/19 13/45/13
f 14/66/14 20/88/20 19/67/19
f 15/87/15 20/88/20 14/66/14
f 16/109/16 20/88/20 15/87/15
f 16/109/16 21/110/21 20/88/20
f 16/4/16 22/26/22 21/5/21
f 17/25/17 22/26/22 16/4/16
f 17/25/17 23/47/23 22/26/22
f 18/46/18 23/47/23 17/25/17
f 18/46/18 24/68/24 23/47/23
f 19/67/19 24/68/24 18/46/18
f 19/67/19 25/89/25 24/68/24
f 20/88/20 25/89/25 19/67/19
f 21/110/21 25/89/25 20/88/20
f 21/110/21 26/111/26 25/89/25
f 21/5/21 27/27/27 26/6/26
f 22/26/22 27/27/27 21/5/21
f 22/26/22 28/48/28 27/27/27
f 23/47/23 28/48/28 22/26/22
f 23/47/23 29/69/29 28/48/28
f 24/68/24 29/69/29 23/47/23
f 24/68/24 30/90/30 29/69/29
f 25/89/25 30/90/30 24/68/24
f 26/111/26 30/90/30 25/89/25
f 26/111/26 31/112/31 30/90/30
f 26/6/26 32/28/32 31/7/31
f 27/27/27 32/28/32 26/6/26
f 27/27/27 33/49/33 32/28/32
f 28/48/28 33/49/33 27/27/27
f 28/48/28 34/70/34 33/49/33
f 29/69/29 34/70/34 28/48/28
f 29/69/29 35/91/35 34/70/34
f 30/90/30 35/91/35 29/69/29
f 31/112/31 35/91/35 30/90/30
f 31/112/31 36/113/36 35/91/35
f 31/7/31 37/29/37 36/8/36
f 32/28/32 37/29/37 31/7/31
f 32/28/32 38/50/38 37/29/37
f 33/49/33 38/50/38 32/28/32
f 33/49/33 39/71/39 38/50/38
f 34/70/34 39/71/39 33/49/33
f 34/70/34 40/92/40 39/71/39
f 35/91/35 40/92/40 34/70/34
f 36/113/36 40/92/40 35/91/35
f 36/113/36 41/114/41 40/92/40
f 36/8/36 42/30/42 41/9/41
f 37/29/37 42/30/42 36/8/36
f 37/29/37 43/51/43 42/30/42
f 38/50/38 43/51/43 37/29/37
f 38/50/38 44/72/44 43/51/43
f 39/71/39 44/72/44 38/50/38
f 39/71/39 45/93/45 44/72/44
f 40/92/40 45/93/45 39/71/39
f 41/114/41 45/93/45 40/92/40
f 41/114/41 46/115/46 45/93/45
f 41/9/41 47/31/47 46/10/46
f 42/30/42 47/31/47 41/9/41
f 42/30/42 48/52/48 47/31/47
f 43/51/43 48/52/48 42/30/42
f 43/51/43 49/73/49 48/52/48
f 44/72/44 49/73/49 43/51/43
f 44/72/44 50/94/50 49/73/49
f 45/93/45 50/94/50 44/72/44
f 46/115/46 50/94/50 45/93/45
f 46/115/46 51/116/51 50/94/50
f 46/10/46 52/32/52 51/11/51
f 47/31/47 52/32/52 46/10/46
f 47/31/47 53/53/53 52/32/52
f 48/52/48 53/53/53 47/31/47
f 48/52/48 54/74/54 53/53/53
f 49/73/49 54/74/54 48/52/48
f 49/73/49 55/95/55 54/74/54
f 50/94/50 55/95/55 49/73/49
f 51/116/51 55/95/55 50/94/50
f 51/116/51 56/117/56 55/95/55
f 51/11/51 57/33/57 56/12/56
f 52/32/52 57/33/57 51/11/51
f 52/32/52 58/54/58 57/33/57
f 53/53/53 58/54/58 52/32/52
f 53/53/53 59/75/59 58/54/58
f 54/74/54 59/75/59 53/53/53
f 54/74/54 60/96/60 59/75/59
f 55/95/55 60/96/60 54/74/54
f 56/117/56 60/96/60 55/95/55
f 56/117/56 61/118/61 60/96/60
f 56/12/56 62/34/62 61/13/61
f 57/33/57 62/34/62 56/12/56
f 57/33/57 63/55/63 62/34/62
f 58/54/58 63/55/63 57/33/57
f 58/54/58 64/76/64 63/55/63
f 59/75/59 64/76/64 58/54/58
f 59/75/59 65/97/65 64/76/64
f 60/96/60 65/97/65 59/75/59
f 61/118/61 65/97/65 60/96/60
f 61/118/61 66/119/66 65/97/65
f 61/13/61 67/35/67 66/14/66
f 62/34/62 67/35/67 61/13/61
f 62/34/62 68/56/68 67/35/67
f 63/55/63 68/56/68 62/34/62
f 63/55/63 69/77/69 68/56/68
f 64/76/64 69/77/69 63/55/63
f 64/76/64 70/98/70 69/77/69
f 65/97/65 70/98/70 64/76/64
f 66/119/66 70/98/70 65/97/65
f 66/119/66 71/120/71 70/98/70
f 66/14/66 72/36/72 71/15/71
f 67/35/67 72/36/72 66/14/66
f 67/35/67 73/57/73 72/36/72
f 68/56/68 73/57/73 67/35/67
f 68/56/68 74/78/74 73/57/73
f 69/77/69 74/78/74 68/56/68
f 69/77/69 75/99/75 74/78/74
f 70/98/70 75/99/75 69/77/69
f 71/120/71 75/99/75 70/98/70
f 71/120/71 76/121/76 75/99/75
f 71/15/71 77/37/77 76/16/76
f 72/36/72 77/37/77 71/15/71
f 72/36/72 78/58/78 77/37/77
f 73/57/73 78/58/78 72/36/72
f 73/57/73 79/79/79 78/58/78
f 74/78/74 79/79/79 73/57/73
f 74/78/74 80/100/80 79/79/79
f 75/99/75 80/100/80 74/78/74
f 76/121/76 80/100/80 75/99/75
f 76/121/76 81/122/81 80/100/80
f 76/16/76 82/38/82 81/17/81
f 77/37/77 82/38/82 76/16/76
f 77/37/77 83/59/83 82/38/82
f 78/58/78 83/59/83 77/37/77
f 78/58/78 84/80/84 83/59/83
f 79/79/79 84/80/84 78/58/78
f 79/79/79 85/101/85 84/80/84
f 80/100/80 85/101/85 79/79/79
f 81/122/81 85/101/85 80/100/80
f 81/122/81 86/123/86 85/101/85
f 81/17/81 87/39/87 86/18/86
f 82/38/82 87/39/87 81/17/81
f 82/38/82 88/60/88 87/39/87
f 83/59/83 88/60/88 82/38/82
f 83/59/83 89/81/89 88/60/88
f 84/80/84 89/81/89 83/59/83
f 84/80/84 90/102/90 89/81/89
f 85/101/85 90/102/90 84/80/84
f 86/123/86 90/102/90 85/101/85
f 86/123/86 91/124/91 90/102/90
f 86/18/86 92/40/92 91/19/91
f 87/39/87 92/40/92 86/18/86
f 87/39/87 93/61/93 92/40/92
f 88/60/88 93/61/93 87/39/87
f 88/60/88 94/82/94 93/61/93
f 89/81/89 94/82/94 88/60/88
f 89/81/89 95/103/95 94/82/94
f 90/102/90 95/103/95 89/81/89
f 91/124/91 95/103/95 90/102/90
f 91/124/91 96/125/96 95/103/95
f 91/19/91 97/41/97 96/20/96
f 92/40/92 97/41/97 91/19/91
f 92/40/92 98/62/98 97/41/97
f 93/61/93 98/62/98 92/40/92
f 93/61/93 99/83/99 98/62/98
f 94/82/94 99/83/99 93/61/93
f 94/82/94 100/104/100 99/83/99
f 95/103/95 100/104/100 94/82/94
f 96/125/96 100/104/100 95/103/95
f 96/125/96 101/126/101 100/104/100
f 96/20/96 102/42/102 101/21/101
f 97/41/97 102/42/102 96/20/96
f 97/41/97 103/63/103 102/42/102
f 98/62/98 103/63/103 97/41/97
f 98/62/98 104/84/104 103/63/103
f 99/83/99 104/84/104 98/62/98
f 99/83/99 105/105/105 104/84/104
f 100/104/100 105/105/105 99/83/99
f 101/126/101 105/105/105 100/104/100
f 102/1/102 103/1/103 101/1/101
f 103/1/103 104/1/104 101/1/101
f 104/1/104 105/1/105 101/1/101
