# Exported from Wings 3D 0.98.32a
mtllib ./kam.mtl
o Model::kamol01_Material::01
#7 vertices, 10 faces
v 0.20786006 0.58125476 0.98108146
v -0.11405087 1.37062826 0.67489893
v -1.34535112 0.26532417 -4.7164444e-3
v -1.23642411 -0.97846885 -0.19876226
v 0.18547187 -0.71157410 -4.0304938e-2
v 0.95532475 0.66912639 0.40748752
v -0.80869925 -0.31654104 -1.56248345
vt 0.0000000e+0 0.20000000
vt 0.0000000e+0 0.60000002
vt 0.0000000e+0 1.00000000
vt 0.20000000 0.20000000
vt 0.20000000 0.60000002
vt 0.20000000 1.00000000
vt 0.40000001 0.20000000
vt 0.40000001 0.60000002
vt 0.40000001 1.00000000
vt 0.59999996 0.20000000
vt 0.59999996 0.60000002
vt 0.59999996 1.00000000
vt 0.80000001 0.20000000
vt 0.80000001 0.60000002
vt 0.80000001 1.00000000
vt 1.00000000 0.60000002
vn 8.7420379e-3 -0.18849847 0.98203457
vn -9.0286555e-2 0.97051563 0.22348995
vn -0.90741229 0.24592040 0.34077279
vn -0.52264049 -0.74868256 0.40782515
vn 0.55843655 -0.81164231 0.17142166
vn 0.97828268 0.19361486 7.4001877e-2
vn -4.2061801e-2 0.12680770 -0.99103512
g Model::kamol01_Material::01_default
usemtl default
f 1/15/1 6/14/6 2/16/2
f 2/2/2 3/5/3 1/3/1
f 2/2/2 7/1/7 3/5/3
f 3/5/3 4/8/4 1/6/1
f 3/5/3 7/4/7 4/8/4
f 4/8/4 5/11/5 1/9/1
f 4/8/4 7/7/7 5/11/5
f 5/11/5 6/14/6 1/12/1
f 5/11/5 7/10/7 6/14/6
f 6/14/6 7/13/7 2/16/2
o Model::kamol02_Material::01
#6 vertices, 8 faces
v 8.0268484e-2 0.14095151 0.63222234
v 0.26277037 0.99339051 -0.21798761
v -1.04261534 -0.32055191 -0.68760109
v -0.44228404 -0.96515429 4.3451348e-2
v 0.91592946 0.30213239 -5.3975205e-2
v 0.37118007 0.39787688 -1.32632232
vt 0.0000000e+0 1.2514526e-8
vt 0.0000000e+0 0.50000000
vt 0.0000000e+0 1.00000000
vt 0.25000000 1.2514526e-8
vt 0.25000000 0.50000000
vt 0.25000000 1.00000000
vt 0.50000000 1.2514526e-8
vt 0.50000000 0.50000000
vt 0.50000000 1.00000000
vt 0.75000000 1.2514526e-8
vt 0.75000000 0.50000000
vt 0.75000000 1.00000000
vt 1.00000000 0.50000000
vn -0.18711804 0.24174380 0.95212750
vn -3.7746192e-2 0.98713580 0.15536453
vn -0.96098275 0.27476853 -3.1849837e-2
vn 0.24605890 -0.96412299 9.9608630e-2
vn 0.96337539 -2.8887984e-2 0.26659584
vn 0.45102579 -4.7807890e-2 -0.89122957
g Model::kamol02_Material::01_default
usemtl default
f 8/28/8 12/27/12 9/29/9
f 9/18/9 10/21/10 8/19/8
f 9/18/9 13/17/13 10/21/10
f 10/21/10 11/24/11 8/22/8
f 10/21/10 13/20/13 11/24/11
f 11/24/11 12/27/12 8/25/8
f 11/24/11 13/23/13 12/27/12
f 12/27/12 13/26/13 9/29/9
o Model::kamol03_Material::01
#7 vertices, 10 faces
v 1.85560527 -0.87620966 1.24802713
v -1.64504271 0.92988904 0.32633425
v -1.20484171 0.48339944 0.39962744
v -0.62984219 -1.21568198 0.38142385
v 0.79205403 -0.57873874 0.36083325
v 1.09583337 1.12529604 0.45180144
v 0.84381366 -0.39777503 -1.29553742
vt 0.0000000e+0 0.20000000
vt 0.0000000e+0 0.60000002
vt 0.0000000e+0 1.00000000
vt 0.20000000 0.20000000
vt 0.20000000 0.60000002
vt 0.20000000 1.00000000
vt 0.40000001 0.20000000
vt 0.40000001 0.60000002
vt 0.40000001 1.00000000
vt 0.59999996 0.20000000
vt 0.59999996 0.60000002
vt 0.59999996 1.00000000
vt 0.80000001 0.20000000
vt 0.80000001 0.60000002
vt 0.80000001 1.00000000
vt 1.00000000 0.60000002
vn 0.13980723 -0.46043286 0.87661595
vn -0.77857938 0.18273116 0.60035278
vn -0.80794523 -0.49565909 0.31866374
vn -0.13195474 -0.96475144 -0.22768971
vn 0.69933197 -0.56292743 -0.44050824
vn 0.83985875 0.47255898 -0.26706797
vn 3.1868266e-2 -0.55699984 -0.82990096
g Model::kamol03_Material::01_default
usemtl default
f 14/44/14 19/43/19 15/45/15
f 15/31/15 16/34/16 14/32/14
f 15/31/15 20/30/20 16/34/16
f 16/34/16 17/37/17 14/35/14
f 16/34/16 20/33/20 17/37/17
f 17/37/17 18/40/18 14/38/14
f 17/37/17 20/36/20 18/40/18
f 18/40/18 19/43/19 14/41/14
f 18/40/18 20/39/20 19/43/19
f 19/43/19 20/42/20 15/45/15
